<?xml version="1.0" encoding="utf-8"?>
<!-- Generator: Adobe Illustrator 24.3.0, SVG Export Plug-In . SVG Version: 6.00 Build 0)  -->
<svg version="1.1" id="Layer_1" xmlns="http://www.w3.org/2000/svg" xmlns:xlink="http://www.w3.org/1999/xlink" x="0px" y="0px"
	 viewBox="0 0 1600 960" style="enable-background:new 0 0 1600 960;" xml:space="preserve">
<style type="text/css">
	.st0{fill:#212529;}
	.st1{opacity:0.1;fill:#4D194D;enable-background:new    ;}
	.st2{fill:#4D194D;}
	.st3{fill:#EFEEEE;}
	.st4{opacity:0.1;fill:#2B9348;enable-background:new    ;}
	.st5{fill:#2B9348;}
	.st6{opacity:0.1;fill:#D90429;enable-background:new    ;}
	.st7{fill:#D90429;}
	.st8{opacity:0.1;fill:#FFAFCC;enable-background:new    ;}
	.st9{fill:#FFAFCC;}
	.st10{enable-background:new    ;}
	.st11{font-family:'PlayfairDisplay-SemiBoldItalic';}
	.st12{font-size:72px;}
	.st13{opacity:0.1;fill:#FDC500;enable-background:new    ;}
	.st14{fill:#FDC500;}
	.st15{opacity:0.1;fill:#179BE5;enable-background:new    ;}
	.st16{fill:#179BE5;}
	.st17{fill:url(#SVGID_1_);}
	.st18{fill:#FFFFFF;}
	.st19{fill:#8A3FFC;}
	.st20{fill:#FFFFFF;stroke:#000000;stroke-miterlimit:10;}
</style>
<rect x="9304.5" y="1108.9" class="st0" width="1600" height="960"/>
<path class="st1" d="M9304.5,1922h53.3c53.3,0,160,0,266.7,16s213.3,48,320,64s213.3,16,320,0s213.3-48,320-69.3
	c106.7-21.7,213.3-31.7,266.7-37.4l53.3-5.3v160h-53.3c-53.3,0-160,0-266.7,0s-213.3,0-320,0s-213.3,0-320,0s-213.3,0-320,0
	s-213.3,0-266.7,0h-53.3V1922L9304.5,1922z"/>
<path class="st2" d="M9304.5,1940.9h53.3c53.3,0,160,0,266.7,16s213.3,48,320,64s213.3,16,320,0s213.3-48,320-69.3
	c106.7-21.7,213.3-31.7,266.7-37.4l53.3-5.3v160h-53.3c-53.3,0-160,0-266.7,0s-213.3,0-320,0s-213.3,0-320,0s-213.3,0-320,0
	s-213.3,0-266.7,0h-53.3V1940.9L9304.5,1940.9z"/>
<path class="st2" d="M9304.5,1227.2l133.3-14.8c133.3-14.8,400-44.4,666.7-29.6c266.7,14.8,533.3,73.9,666.7,103.5l133.3,29.6v-207
	h-133.3c-133.3,0-400,0-666.7,0s-533.3,0-666.7,0h-133.3V1227.2L9304.5,1227.2z"/>
<path class="st1" d="M9304.5,1250.8l133.3-14.8c133.3-14.8,400-44.4,666.7-29.6s533.3,73.9,666.7,103.5l133.3,29.6v-207h-133.3
	c-133.3,0-400,0-666.7,0s-533.3,0-666.7,0h-133.3V1250.8L9304.5,1250.8z"/>
<g>
	
		<image style="overflow:visible;enable-background:new    ;" width="573" height="573" xlink:href="E0F276E9.png"  transform="matrix(1 0 0 1 9438.4414 1302.0347)">
	</image>
</g>
<g>
	
		<image style="overflow:visible;enable-background:new    ;" width="572" height="573" xlink:href="E0F276EA.png"  transform="matrix(1 0 0 1 10138.4414 1302.0347)">
	</image>
</g>
<path class="st0" d="M9934.9,1838.9h-419.7c-22.2,0-40.1-18-40.1-40.1V1379c0-22.2,18-40.1,40.1-40.1h419.7
	c22.2,0,40.1,18,40.1,40.1v419.7C9975,1820.9,9957,1838.9,9934.9,1838.9z"/>
<path class="st0" d="M10634.4,1838.9h-419.8c-22.2,0-40.1-18-40.1-40.1V1379c0-22.2,18-40.1,40.1-40.1h419.7
	c22.2,0,40.1,18,40.1,40.1v419.7C10674.5,1820.9,10656.5,1838.9,10634.4,1838.9z"/>
<text transform="matrix(1 0 0 1 9609.3496 1423.7767)" class="st2 st11 st12">Word</text>
<text transform="matrix(1 0 0 1 10236.6094 1423.7767)" class="st2 st11 st12">Meaning</text>
<rect x="9304.5" class="st3" width="1600" height="960"/>
<path class="st1" d="M9304.5,813.1h53.3c53.3,0,160,0,266.7,16s213.3,48,320,64s213.3,16,320,0s213.3-48,320-69.3
	c106.7-21.7,213.3-31.7,266.7-37.4l53.3-5.3v160h-53.3c-53.3,0-160,0-266.7,0s-213.3,0-320,0s-213.3,0-320,0s-213.3,0-320,0
	s-213.3,0-266.7,0h-53.3V813.1L9304.5,813.1z"/>
<path class="st2" d="M9304.5,832h53.3c53.3,0,160,0,266.7,16s213.3,48,320,64s213.3,16,320,0s213.3-48,320-69.3
	c106.7-21.7,213.3-31.7,266.7-37.4l53.3-5.3v160h-53.3c-53.3,0-160,0-266.7,0s-213.3,0-320,0s-213.3,0-320,0s-213.3,0-320,0
	s-213.3,0-266.7,0h-53.3V832L9304.5,832z"/>
<path class="st2" d="M9304.5,118.3l133.3-14.8c133.3-14.8,400-44.4,666.7-29.6c266.7,14.8,533.3,73.9,666.7,103.5l133.3,29.6V0
	h-133.3c-133.3,0-400,0-666.7,0s-533.3,0-666.7,0h-133.3V118.3L9304.5,118.3z"/>
<path class="st1" d="M9304.5,141.9l133.3-14.8c133.3-14.8,400-44.4,666.7-29.6s533.3,73.9,666.7,103.5l133.3,29.6v-207h-133.3
	c-133.3,0-400,0-666.7,0s-533.3,0-666.7,0h-133.3V141.9L9304.5,141.9z"/>
<g>
	
		<image style="overflow:visible;enable-background:new    ;" width="573" height="572" xlink:href="E0F276EB.png"  transform="matrix(1 0 0 1 9438.4414 194.0347)">
	</image>
</g>
<g>
	
		<image style="overflow:visible;enable-background:new    ;" width="572" height="572" xlink:href="E0F276EC.png"  transform="matrix(1 0 0 1 10138.4414 194.0347)">
	</image>
</g>
<path class="st3" d="M9934.9,730h-419.7c-22.2,0-40.1-18-40.1-40.1V270.1c0-22.2,18-40.1,40.1-40.1h419.7c22.2,0,40.1,18,40.1,40.1
	v419.7C9975,712,9957,730,9934.9,730z"/>
<path class="st3" d="M10634.4,730h-419.8c-22.2,0-40.1-18-40.1-40.1V270.1c0-22.2,18-40.1,40.1-40.1h419.7c22.2,0,40.1,18,40.1,40.1
	v419.7C10674.5,712,10656.5,730,10634.4,730z"/>
<text transform="matrix(1 0 0 1 9609.3496 314.9115)" class="st2 st11 st12">Word</text>
<text transform="matrix(1 0 0 1 10236.6094 314.9115)" class="st2 st11 st12">Meaning</text>
<rect x="7344.1" y="1108.9" class="st0" width="1600" height="960"/>
<path class="st4" d="M7344.1,1922h53.3c53.3,0,160,0,266.7,16c106.7,16,213.3,48,320,64c106.7,16,213.3,16,320,0
	c106.7-16,213.3-48,320-69.3c106.7-21.7,213.3-31.7,266.7-37.4l53.3-5.3v160h-53.3c-53.3,0-160,0-266.7,0c-106.7,0-213.3,0-320,0
	c-106.7,0-213.3,0-320,0c-106.7,0-213.3,0-320,0c-106.7,0-213.3,0-266.7,0h-53.3V1922z"/>
<path class="st5" d="M7344.1,1940.9h53.3c53.3,0,160,0,266.7,16c106.7,16,213.3,48,320,64c106.7,16,213.3,16,320,0
	c106.7-16,213.3-48,320-69.3c106.7-21.7,213.3-31.7,266.7-37.4l53.3-5.3v160h-53.3c-53.3,0-160,0-266.7,0c-106.7,0-213.3,0-320,0
	c-106.7,0-213.3,0-320,0c-106.7,0-213.3,0-320,0c-106.7,0-213.3,0-266.7,0h-53.3V1940.9z"/>
<path class="st5" d="M7344.1,1227.2l133.3-14.8c133.3-14.8,400-44.4,666.7-29.6c266.7,14.8,533.3,73.9,666.7,103.5l133.3,29.6v-207
	h-133.3c-133.3,0-400,0-666.7,0c-266.7,0-533.3,0-666.7,0h-133.3V1227.2z"/>
<path class="st4" d="M7344.1,1250.8l133.3-14.8c133.3-14.8,400-44.4,666.7-29.6c266.7,14.8,533.3,73.9,666.7,103.5l133.3,29.6v-207
	h-133.3c-133.3,0-400,0-666.7,0c-266.7,0-533.3,0-666.7,0h-133.3V1250.8z"/>
<g>
	
		<image style="overflow:visible;enable-background:new    ;" width="573" height="573" xlink:href="E0F276ED.png"  transform="matrix(1 0 0 1 7478.4409 1302.0347)">
	</image>
</g>
<g>
	
		<image style="overflow:visible;enable-background:new    ;" width="573" height="573" xlink:href="E0F276E8.png"  transform="matrix(1 0 0 1 8177.4409 1302.0347)">
	</image>
</g>
<path class="st0" d="M7974.5,1838.9h-419.7c-22.2,0-40.1-18-40.1-40.1V1379c0-22.2,18-40.1,40.1-40.1h419.7
	c22.2,0,40.1,18,40.1,40.1v419.7C8014.6,1820.9,7996.6,1838.9,7974.5,1838.9z"/>
<path class="st0" d="M8674,1838.9h-419.8c-22.2,0-40.1-18-40.1-40.1V1379c0-22.2,18-40.1,40.1-40.1h419.7c22.2,0,40.1,18,40.1,40.1
	v419.7C8714.1,1820.9,8696.1,1838.9,8674,1838.9z"/>
<text transform="matrix(1 0 0 1 7648.9629 1423.7767)" class="st5 st11 st12">Word</text>
<text transform="matrix(1 0 0 1 8276.2227 1423.7767)" class="st5 st11 st12">Meaning</text>
<rect x="7344.1" class="st3" width="1600" height="960"/>
<path class="st4" d="M7344.1,813.1h53.3c53.3,0,160,0,266.7,16c106.7,16,213.3,48,320,64c106.7,16,213.3,16,320,0
	c106.7-16,213.3-48,320-69.3c106.7-21.7,213.3-31.7,266.7-37.4l53.3-5.3v160h-53.3c-53.3,0-160,0-266.7,0c-106.7,0-213.3,0-320,0
	c-106.7,0-213.3,0-320,0c-106.7,0-213.3,0-320,0c-106.7,0-213.3,0-266.7,0h-53.3V813.1z"/>
<path class="st5" d="M7344.1,832h53.3c53.3,0,160,0,266.7,16c106.7,16,213.3,48,320,64c106.7,16,213.3,16,320,0
	c106.7-16,213.3-48,320-69.3c106.7-21.7,213.3-31.7,266.7-37.4l53.3-5.3v160h-53.3c-53.3,0-160,0-266.7,0c-106.7,0-213.3,0-320,0
	c-106.7,0-213.3,0-320,0c-106.7,0-213.3,0-320,0c-106.7,0-213.3,0-266.7,0h-53.3V832z"/>
<path class="st5" d="M7344.1,118.3l133.3-14.8c133.3-14.8,400-44.4,666.7-29.6c266.7,14.8,533.3,73.9,666.7,103.5l133.3,29.6V0
	h-133.3c-133.3,0-400,0-666.7,0c-266.7,0-533.3,0-666.7,0h-133.3V118.3z"/>
<path class="st4" d="M7344.1,141.9l133.3-14.8c133.3-14.8,400-44.4,666.7-29.6c266.7,14.8,533.3,73.9,666.7,103.5l133.3,29.6v-207
	h-133.3c-133.3,0-400,0-666.7,0c-266.7,0-533.3,0-666.7,0h-133.3V141.9z"/>
<g>
	
		<image style="overflow:visible;enable-background:new    ;" width="573" height="572" xlink:href="E0F276E7.png"  transform="matrix(1 0 0 1 7478.4409 194.0347)">
	</image>
</g>
<g>
	
		<image style="overflow:visible;enable-background:new    ;" width="573" height="572" xlink:href="E0F2770C.png"  transform="matrix(1 0 0 1 8177.4409 194.0347)">
	</image>
</g>
<path class="st3" d="M7974.5,730h-419.7c-22.2,0-40.1-18-40.1-40.1V270.1c0-22.2,18-40.1,40.1-40.1h419.7c22.2,0,40.1,18,40.1,40.1
	v419.7C8014.6,712,7996.6,730,7974.5,730z"/>
<path class="st3" d="M8674,730h-419.8c-22.2,0-40.1-18-40.1-40.1V270.1c0-22.2,18-40.1,40.1-40.1h419.7c22.2,0,40.1,18,40.1,40.1
	v419.7C8714.1,712,8696.1,730,8674,730z"/>
<text transform="matrix(1 0 0 1 7648.9629 314.9115)" class="st5 st11 st12">Word</text>
<text transform="matrix(1 0 0 1 8276.2227 314.9115)" class="st5 st11 st12">Meaning</text>
<rect x="5418.3" y="1108.9" class="st0" width="1600" height="960"/>
<path class="st6" d="M5418.3,1922h53.3c53.3,0,160,0,266.7,16s213.3,48,320,64s213.3,16,320,0s213.3-48,320-69.3
	c106.7-21.7,213.3-31.7,266.7-37.4l53.3-5.3v160H6965c-53.3,0-160,0-266.7,0s-213.3,0-320,0s-213.3,0-320,0s-213.3,0-320,0
	s-213.3,0-266.7,0h-53.3V1922z"/>
<path class="st7" d="M5418.3,1940.9h53.3c53.3,0,160,0,266.7,16s213.3,48,320,64s213.3,16,320,0s213.3-48,320-69.3
	c106.7-21.7,213.3-31.7,266.7-37.4l53.3-5.3v160H6965c-53.3,0-160,0-266.7,0s-213.3,0-320,0s-213.3,0-320,0s-213.3,0-320,0
	s-213.3,0-266.7,0h-53.3V1940.9z"/>
<path class="st7" d="M5418.3,1227.2l133.3-14.8c133.3-14.8,400-44.4,666.7-29.6c266.7,14.8,533.3,73.9,666.7,103.5l133.3,29.6v-207
	H6885c-133.3,0-400,0-666.7,0s-533.3,0-666.7,0h-133.3V1227.2z"/>
<path class="st6" d="M5418.3,1250.8l133.3-14.8c133.3-14.8,400-44.4,666.7-29.6s533.3,73.9,666.7,103.5l133.3,29.6v-207H6885
	c-133.3,0-400,0-666.7,0s-533.3,0-666.7,0h-133.3V1250.8z"/>
<g>
	
		<image style="overflow:visible;enable-background:new    ;" width="573" height="573" xlink:href="E0F2770D.png"  transform="matrix(1 0 0 1 5552.4409 1302.0347)">
	</image>
</g>
<g>
	
		<image style="overflow:visible;enable-background:new    ;" width="573" height="573" xlink:href="830B323C.png"  transform="matrix(1 0 0 1 6251.4409 1302.0347)">
	</image>
</g>
<path class="st0" d="M6048.7,1838.9H5629c-22.2,0-40.1-18-40.1-40.1V1379c0-22.2,18-40.1,40.1-40.1h419.7c22.2,0,40.1,18,40.1,40.1
	v419.7C6088.8,1820.9,6070.8,1838.9,6048.7,1838.9z"/>
<path class="st0" d="M6748.2,1838.9h-419.8c-22.2,0-40.1-18-40.1-40.1V1379c0-22.2,18-40.1,40.1-40.1h419.7
	c22.2,0,40.1,18,40.1,40.1v419.7C6788.3,1820.9,6770.3,1838.9,6748.2,1838.9z"/>
<text transform="matrix(1 0 0 1 5723.1206 1423.7767)" class="st7 st11 st12">Word</text>
<text transform="matrix(1 0 0 1 6350.3809 1423.7767)" class="st7 st11 st12">Meaning</text>
<rect x="5418.3" class="st3" width="1600" height="960"/>
<path class="st6" d="M5418.3,813.1h53.3c53.3,0,160,0,266.7,16s213.3,48,320,64s213.3,16,320,0s213.3-48,320-69.3
	c106.7-21.7,213.3-31.7,266.7-37.4l53.3-5.3v160H6965c-53.3,0-160,0-266.7,0s-213.3,0-320,0s-213.3,0-320,0s-213.3,0-320,0
	s-213.3,0-266.7,0h-53.3V813.1z"/>
<path class="st7" d="M5418.3,832h53.3c53.3,0,160,0,266.7,16s213.3,48,320,64s213.3,16,320,0s213.3-48,320-69.3
	C6805,821,6911.6,811,6965,805.3l53.3-5.3v160H6965c-53.3,0-160,0-266.7,0s-213.3,0-320,0s-213.3,0-320,0s-213.3,0-320,0
	s-213.3,0-266.7,0h-53.3V832z"/>
<path class="st7" d="M5418.3,118.3l133.3-14.8c133.3-14.8,400-44.4,666.7-29.6c266.7,14.8,533.3,73.9,666.7,103.5l133.3,29.6V0H6885
	c-133.3,0-400,0-666.7,0S5685,0,5551.6,0h-133.3V118.3z"/>
<path class="st6" d="M5418.3,141.9l133.3-14.8c133.3-14.8,400-44.4,666.7-29.6S6751.6,171.4,6885,201l133.3,29.6v-207H6885
	c-133.3,0-400,0-666.7,0s-533.3,0-666.7,0h-133.3V141.9z"/>
<g>
	
		<image style="overflow:visible;enable-background:new    ;" width="573" height="572" xlink:href="830B323A.png"  transform="matrix(1 0 0 1 5552.4409 194.0347)">
	</image>
</g>
<g>
	
		<image style="overflow:visible;enable-background:new    ;" width="573" height="572" xlink:href="830B323B.png"  transform="matrix(1 0 0 1 6251.4409 194.0347)">
	</image>
</g>
<path class="st3" d="M6048.7,730H5629c-22.2,0-40.1-18-40.1-40.1V270.1c0-22.2,18-40.1,40.1-40.1h419.7c22.2,0,40.1,18,40.1,40.1
	v419.7C6088.8,712,6070.8,730,6048.7,730z"/>
<path class="st3" d="M6748.2,730h-419.8c-22.2,0-40.1-18-40.1-40.1V270.1c0-22.2,18-40.1,40.1-40.1h419.7c22.2,0,40.1,18,40.1,40.1
	v419.7C6788.3,712,6770.3,730,6748.2,730z"/>
<text transform="matrix(1 0 0 1 5723.1206 314.9115)" class="st7 st11 st12">Word</text>
<text transform="matrix(1 0 0 1 6350.3809 314.9115)" class="st7 st11 st12">Meaning</text>
<rect y="1108.9" class="st0" width="1600" height="960"/>
<path class="st8" d="M0,1922h53.3c53.3,0,160,0,266.7,16s213.3,48,320,64s213.3,16,320,0s213.3-48,320-69.3
	c106.7-21.7,213.3-31.7,266.7-37.4l53.3-5.3v160h-53.3c-53.3,0-160,0-266.7,0c-106.7,0-213.3,0-320,0s-213.3,0-320,0s-213.3,0-320,0
	s-213.3,0-266.7,0H0V1922z"/>
<path class="st9" d="M0,1940.9h53.3c53.3,0,160,0,266.7,16s213.3,48,320,64s213.3,16,320,0s213.3-48,320-69.3
	c106.7-21.7,213.3-31.7,266.7-37.4l53.3-5.3v160h-53.3c-53.3,0-160,0-266.7,0c-106.7,0-213.3,0-320,0s-213.3,0-320,0s-213.3,0-320,0
	s-213.3,0-266.7,0H0V1940.9z"/>
<path class="st9" d="M0,1227.2l133.3-14.8c133.3-14.8,400-44.4,666.7-29.6c266.7,14.8,533.3,73.9,666.7,103.5l133.3,29.6v-207
	h-133.3c-133.3,0-400,0-666.7,0s-533.3,0-666.7,0H0V1227.2z"/>
<g class="st10">
	
		<image style="overflow:visible;enable-background:new    ;" width="573" height="573" xlink:href="830B3224.png"  transform="matrix(1 0 0 1 833.4409 1302.0347)">
	</image>
</g>
<path class="st8" d="M0,1250.8l133.3-14.8c133.3-14.8,400-44.4,666.7-29.6s533.3,73.9,666.7,103.5l133.3,29.6v-207h-133.3
	c-133.3,0-400,0-666.7,0s-533.3,0-666.7,0H0V1250.8z"/>
<g class="st10">
	
		<image style="overflow:visible;enable-background:new    ;" width="573" height="573" xlink:href="830B3229.png"  transform="matrix(1 0 0 1 134.4409 1302.0347)">
	</image>
</g>
<path class="st0" d="M630.4,1838.9H210.7c-22.2,0-40.1-18-40.1-40.1V1379c0-22.2,18-40.1,40.1-40.1h419.7c22.2,0,40.1,18,40.1,40.1
	v419.7C670.5,1820.9,652.5,1838.9,630.4,1838.9z"/>
<path class="st0" d="M1329.9,1838.9H910.1c-22.2,0-40.1-18-40.1-40.1V1379c0-22.2,18-40.1,40.1-40.1h419.7c22.2,0,40.1,18,40.1,40.1
	v419.7C1370,1820.9,1352,1838.9,1329.9,1838.9z"/>
<text transform="matrix(1 0 0 1 304.7998 1423.7767)" class="st9 st11 st12">Word</text>
<text transform="matrix(1 0 0 1 932.0576 1423.7767)" class="st9 st11 st12">Meaning</text>
<rect class="st3" width="1600" height="960"/>
<path class="st8" d="M0,813.1h53.3c53.3,0,160,0,266.7,16s213.3,48,320,64s213.3,16,320,0s213.3-48,320-69.3
	c106.7-21.7,213.3-31.7,266.7-37.4l53.3-5.3v160h-53.3c-53.3,0-160,0-266.7,0c-106.7,0-213.3,0-320,0s-213.3,0-320,0s-213.3,0-320,0
	s-213.3,0-266.7,0H0V813.1z"/>
<path class="st9" d="M0,832h53.3c53.3,0,160,0,266.7,16s213.3,48,320,64s213.3,16,320,0s213.3-48,320-69.3
	c106.7-21.7,213.3-31.7,266.7-37.4l53.3-5.3v160h-53.3c-53.3,0-160,0-266.7,0c-106.7,0-213.3,0-320,0s-213.3,0-320,0s-213.3,0-320,0
	s-213.3,0-266.7,0H0V832z"/>
<path class="st9" d="M0,118.3l133.3-14.8c133.3-14.8,400-44.4,666.7-29.6c266.7,14.8,533.3,73.9,666.7,103.5L1600,207V0h-133.3
	c-133.3,0-400,0-666.7,0S266.7,0,133.3,0H0V118.3z"/>
<path class="st8" d="M0,141.9l133.3-14.8c133.3-14.8,400-44.4,666.7-29.6s533.3,73.9,666.7,103.5l133.3,29.6v-207h-133.3
	c-133.3,0-400,0-666.7,0s-533.3,0-666.7,0H0V141.9z"/>
<g>
	
		<image style="overflow:visible;" width="573" height="573" xlink:href="830B322A.png"  transform="matrix(1 0 0 1 134.2998 193.9)">
	</image>
</g>
<g>
	
		<image style="overflow:visible;" width="573" height="573" xlink:href="830B322B.png"  transform="matrix(1 0 0 1 833.2998 193.9)">
	</image>
</g>
<path class="st3" d="M630.4,730H210.7c-22.2,0-40.1-18-40.1-40.1V270.1c0-22.2,18-40.1,40.1-40.1h419.7c22.2,0,40.1,18,40.1,40.1
	v419.7C670.5,712,652.5,730,630.4,730z"/>
<path class="st3" d="M1329.9,730H910.1c-22.2,0-40.1-18-40.1-40.1V270.1c0-22.2,18-40.1,40.1-40.1h419.7c22.2,0,40.1,18,40.1,40.1
	v419.7C1370,712,1352,730,1329.9,730z"/>
<text transform="matrix(1 0 0 1 304.7998 314.9115)" class="st9 st11 st12">Word</text>
<text transform="matrix(1 0 0 1 932.0576 314.9115)" class="st9 st11 st12">Meaning</text>
<rect x="1780.8" y="1108.9" class="st0" width="1600" height="960"/>
<path class="st13" d="M1780.8,1922h53.3c53.3,0,160,0,266.7,16s213.3,48,320,64s213.3,16,320,0s213.3-48,320-69.3
	c106.7-21.7,213.3-31.7,266.7-37.4l53.3-5.3v160h-53.3c-53.3,0-160,0-266.7,0s-213.3,0-320,0s-213.3,0-320,0s-213.3,0-320,0
	s-213.3,0-266.7,0h-53.3V1922z"/>
<path class="st14" d="M1780.8,1940.9h53.3c53.3,0,160,0,266.7,16s213.3,48,320,64s213.3,16,320,0s213.3-48,320-69.3
	c106.7-21.7,213.3-31.7,266.7-37.4l53.3-5.3v160h-53.3c-53.3,0-160,0-266.7,0s-213.3,0-320,0s-213.3,0-320,0s-213.3,0-320,0
	s-213.3,0-266.7,0h-53.3V1940.9z"/>
<path class="st14" d="M1780.8,1227.2l133.3-14.8c133.3-14.8,400-44.4,666.7-29.6c266.7,14.8,533.3,73.9,666.7,103.5l133.3,29.6v-207
	h-133.3c-133.3,0-400,0-666.7,0s-533.3,0-666.7,0h-133.3V1227.2z"/>
<g class="st10">
	
		<image style="overflow:visible;enable-background:new    ;" width="573" height="573" xlink:href="830B322E.png"  transform="matrix(1 0 0 1 2614.4409 1302.0347)">
	</image>
</g>
<path class="st13" d="M1780.8,1250.8l133.3-14.8c133.3-14.8,400-44.4,666.7-29.6s533.3,73.9,666.7,103.5l133.3,29.6v-207h-133.3
	c-133.3,0-400,0-666.7,0s-533.3,0-666.7,0h-133.3V1250.8z"/>
<g class="st10">
	
		<image style="overflow:visible;enable-background:new    ;" width="572" height="573" xlink:href="830B322F.png"  transform="matrix(1 0 0 1 1915.4409 1302.0347)">
	</image>
</g>
<path class="st0" d="M2411.2,1838.9h-419.7c-22.2,0-40.1-18-40.1-40.1V1379c0-22.2,18-40.1,40.1-40.1h419.7
	c22.2,0,40.1,18,40.1,40.1v419.7C2451.3,1820.9,2433.3,1838.9,2411.2,1838.9z"/>
<path class="st0" d="M3110.7,1838.9h-419.8c-22.2,0-40.1-18-40.1-40.1V1379c0-22.2,18-40.1,40.1-40.1h419.7
	c22.2,0,40.1,18,40.1,40.1v419.7C3150.8,1820.9,3132.8,1838.9,3110.7,1838.9z"/>
<text transform="matrix(1 0 0 1 2085.6719 1423.7767)" class="st14 st11 st12">Word</text>
<text transform="matrix(1 0 0 1 2712.9299 1423.7767)" class="st14 st11 st12">Meaning</text>
<rect x="1780.8" class="st3" width="1600" height="960"/>
<path class="st13" d="M1780.8,813.1h53.3c53.3,0,160,0,266.7,16s213.3,48,320,64s213.3,16,320,0s213.3-48,320-69.3
	c106.7-21.7,213.3-31.7,266.7-37.4l53.3-5.3v160h-53.3c-53.3,0-160,0-266.7,0s-213.3,0-320,0s-213.3,0-320,0s-213.3,0-320,0
	s-213.3,0-266.7,0h-53.3V813.1z"/>
<path class="st14" d="M1780.8,832h53.3c53.3,0,160,0,266.7,16s213.3,48,320,64s213.3,16,320,0s213.3-48,320-69.3
	c106.7-21.7,213.3-31.7,266.7-37.4l53.3-5.3v160h-53.3c-53.3,0-160,0-266.7,0s-213.3,0-320,0s-213.3,0-320,0s-213.3,0-320,0
	s-213.3,0-266.7,0h-53.3V832z"/>
<path class="st14" d="M1780.8,118.3l133.3-14.8c133.3-14.8,400-44.4,666.7-29.6c266.7,14.8,533.3,73.9,666.7,103.5l133.3,29.6V0
	h-133.3c-133.3,0-400,0-666.7,0s-533.3,0-666.7,0h-133.3V118.3z"/>
<path class="st13" d="M1780.8,141.9l133.3-14.8c133.3-14.8,400-44.4,666.7-29.6s533.3,73.9,666.7,103.5l133.3,29.6v-207h-133.3
	c-133.3,0-400,0-666.7,0s-533.3,0-666.7,0h-133.3V141.9z"/>
<g>
	
		<image style="overflow:visible;" width="572" height="573" xlink:href="830B3228.png"  transform="matrix(1 0 0 1 1915.2998 193.9)">
	</image>
</g>
<g>
	
		<image style="overflow:visible;" width="573" height="573" xlink:href="830B3246.png"  transform="matrix(1 0 0 1 2614.2998 193.9)">
	</image>
</g>
<path class="st3" d="M2411.2,730h-419.7c-22.2,0-40.1-18-40.1-40.1V270.1c0-22.2,18-40.1,40.1-40.1h419.7c22.2,0,40.1,18,40.1,40.1
	v419.7C2451.3,712,2433.3,730,2411.2,730z"/>
<path class="st3" d="M3110.7,730h-419.8c-22.2,0-40.1-18-40.1-40.1V270.1c0-22.2,18-40.1,40.1-40.1h419.7c22.2,0,40.1,18,40.1,40.1
	v419.7C3150.8,712,3132.8,730,3110.7,730z"/>
<text transform="matrix(1 0 0 1 2085.6719 314.9115)" class="st14 st11 st12">Word</text>
<text transform="matrix(1 0 0 1 2712.9299 314.9115)" class="st14 st11 st12">Meaning</text>
<rect x="3601.4" y="1108.9" class="st0" width="1600" height="960"/>
<path class="st15" d="M3601.4,1922h53.3c53.3,0,160,0,266.7,16c106.7,16,213.3,48,320,64s213.3,16,320,0s213.3-48,320-69.3
	c106.7-21.7,213.3-31.7,266.7-37.4l53.3-5.3v160h-53.3c-53.3,0-160,0-266.7,0s-213.3,0-320,0s-213.3,0-320,0s-213.3,0-320,0
	s-213.3,0-266.7,0h-53.3V1922L3601.4,1922z"/>
<path class="st16" d="M3601.4,1940.9h53.3c53.3,0,160,0,266.7,16c106.7,16,213.3,48,320,64s213.3,16,320,0s213.3-48,320-69.3
	c106.7-21.7,213.3-31.7,266.7-37.4l53.3-5.3v160h-53.3c-53.3,0-160,0-266.7,0s-213.3,0-320,0s-213.3,0-320,0s-213.3,0-320,0
	s-213.3,0-266.7,0h-53.3V1940.9L3601.4,1940.9z"/>
<path class="st16" d="M3601.4,1227.2l133.3-14.8c133.3-14.8,400-44.4,666.7-29.6c266.7,14.8,533.3,73.9,666.7,103.5l133.3,29.6v-207
	h-133.3c-133.3,0-400,0-666.7,0c-266.7,0-533.3,0-666.7,0h-133.3V1227.2z"/>
<path class="st15" d="M3601.4,1250.8l133.3-14.8c133.3-14.8,400-44.4,666.7-29.6c266.7,14.8,533.3,73.9,666.7,103.5l133.3,29.6v-207
	h-133.3c-133.3,0-400,0-666.7,0c-266.7,0-533.3,0-666.7,0h-133.3V1250.8z"/>
<g class="st10">
	
		<image style="overflow:visible;enable-background:new    ;" width="573" height="572" xlink:href="E0F276F8.png"  transform="matrix(1 0 0 1 3735.4409 1302.9)">
	</image>
</g>
<path class="st0" d="M4231.8,1838.9h-419.7c-22.2,0-40.1-18-40.1-40.1V1379c0-22.2,18-40.1,40.1-40.1h419.7
	c22.2,0,40.1,18,40.1,40.1v419.7C4271.9,1820.9,4253.9,1838.9,4231.8,1838.9z"/>
<g>
	
		<image style="overflow:visible;enable-background:new    ;" width="572" height="572" xlink:href="E0F276F9.png"  transform="matrix(1 0 0 1 4435.4409 1302.9)">
	</image>
</g>
<path class="st0" d="M4931.3,1838.9h-419.8c-22.2,0-40.1-18-40.1-40.1V1379c0-22.2,18-40.1,40.1-40.1h419.7
	c22.2,0,40.1,18,40.1,40.1v419.7C4971.4,1820.9,4953.4,1838.9,4931.3,1838.9z"/>
<text transform="matrix(1 0 0 1 3906.2632 1423.7767)" class="st16 st11 st12">Word</text>
<text transform="matrix(1 0 0 1 4533.5215 1423.7767)" class="st16 st11 st12">Meaning</text>
<rect x="3601.4" class="st3" width="1600" height="960"/>
<path class="st15" d="M3601.4,813.1h53.3c53.3,0,160,0,266.7,16c106.7,16,213.3,48,320,64s213.3,16,320,0s213.3-48,320-69.3
	c106.7-21.7,213.3-31.7,266.7-37.4l53.3-5.3v160h-53.3c-53.3,0-160,0-266.7,0s-213.3,0-320,0s-213.3,0-320,0s-213.3,0-320,0
	s-213.3,0-266.7,0h-53.3V813.1L3601.4,813.1z"/>
<path class="st16" d="M3601.4,832h53.3c53.3,0,160,0,266.7,16c106.7,16,213.3,48,320,64s213.3,16,320,0s213.3-48,320-69.3
	c106.7-21.7,213.3-31.7,266.7-37.4l53.3-5.3v160h-53.3c-53.3,0-160,0-266.7,0s-213.3,0-320,0s-213.3,0-320,0s-213.3,0-320,0
	s-213.3,0-266.7,0h-53.3V832L3601.4,832z"/>
<path class="st16" d="M3601.4,118.3l133.3-14.8c133.3-14.8,400-44.4,666.7-29.6c266.7,14.8,533.3,73.9,666.7,103.5l133.3,29.6V0
	h-133.3c-133.3,0-400,0-666.7,0c-266.7,0-533.3,0-666.7,0h-133.3V118.3z"/>
<path class="st15" d="M3601.4,141.9l133.3-14.8c133.3-14.8,400-44.4,666.7-29.6c266.7,14.8,533.3,73.9,666.7,103.5l133.3,29.6v-207
	h-133.3c-133.3,0-400,0-666.7,0c-266.7,0-533.3,0-666.7,0h-133.3V141.9z"/>
<g class="st10">
	
		<image style="overflow:visible;enable-background:new    ;" width="573" height="572" xlink:href="E0F276F8.png"  transform="matrix(1 0 0 1 3735.4409 194.0347)">
	</image>
</g>
<path class="st3" d="M4231.8,730h-419.7c-22.2,0-40.1-18-40.1-40.1V270.1c0-22.2,18-40.1,40.1-40.1h419.7c22.2,0,40.1,18,40.1,40.1
	v419.7C4271.9,712,4253.9,730,4231.8,730z"/>
<g>
	
		<image style="overflow:visible;enable-background:new    ;" width="572" height="572" xlink:href="E0F276F9.png"  transform="matrix(1 0 0 1 4435.4409 194.0347)">
	</image>
</g>
<path class="st3" d="M4931.3,730h-419.8c-22.2,0-40.1-18-40.1-40.1V270.1c0-22.2,18-40.1,40.1-40.1h419.7c22.2,0,40.1,18,40.1,40.1
	v419.7C4971.4,712,4953.4,730,4931.3,730z"/>
<text transform="matrix(1 0 0 1 3906.2632 314.9115)" class="st16 st11 st12">Word</text>
<text transform="matrix(1 0 0 1 4533.5215 314.9115)" class="st16 st11 st12">Meaning</text>
<g>
	<g>
		
			<image style="overflow:visible;enable-background:new    ;" width="191" height="193" xlink:href="830B324E.png"  transform="matrix(1 0 0 1 6775.4409 -1000.9652)">
		</image>
	</g>
	
		<radialGradient id="SVGID_1_" cx="6870.7827" cy="4084.1655" r="55.4927" gradientTransform="matrix(1 0 0 -1 0 3179.8)" gradientUnits="userSpaceOnUse">
		<stop  offset="0" style="stop-color:#5700DB"/>
		<stop  offset="0.2615" style="stop-color:#5A04DD"/>
		<stop  offset="0.5074" style="stop-color:#630FE3"/>
		<stop  offset="0.7472" style="stop-color:#7322ED"/>
		<stop  offset="0.982" style="stop-color:#883DFB"/>
		<stop  offset="1" style="stop-color:#8A3FFC"/>
	</radialGradient>
	<path class="st17" d="M6923.8-923.4c6.4,20.7-3.6,45.6-23.1,60.6c-19.5,14.9-48.7,19.8-66.1,7.5c-17.5-12.4-23.3-42.1-15.1-65.2
		c8.1-23.2,30.3-39.8,52.7-39.9S6917.4-944.1,6923.8-923.4z"/>
	<path class="st18" d="M6870.8-866.1L6870.8-866.1c-3.8,0-7-3.1-7-7v-62.6c0-3.8,3.1-7,7-7l0,0c3.8,0,7,3.1,7,7v62.6
		C6877.7-869.2,6874.6-866.1,6870.8-866.1z"/>
	<path class="st18" d="M6909.1-904.4L6909.1-904.4c0,3.8-3.1,7-7,7h-62.6c-3.8,0-7-3.1-7-7l0,0c0-3.8,3.1-7,7-7h62.6
		C6905.9-911.3,6909.1-908.2,6909.1-904.4z"/>
</g>
<g>
	<g>
		
			<image style="overflow:visible;enable-background:new    ;" width="192" height="193" xlink:href="830B3242.png"  transform="matrix(1 0 0 1 6610.4409 -1000.9652)">
		</image>
	</g>
	<path class="st19" d="M6759.4-923.4c6.4,20.7-3.6,45.6-23.1,60.6c-19.5,14.9-48.7,19.8-66.1,7.5c-17.5-12.4-23.3-42.1-15.1-65.2
		c8.1-23.2,30.3-39.8,52.7-39.9C6730.2-960.5,6753-944.1,6759.4-923.4z"/>
	<path class="st18" d="M6706.3-866.1L6706.3-866.1c-3.8,0-7-3.1-7-7v-62.6c0-3.8,3.1-7,7-7l0,0c3.8,0,7,3.1,7,7v62.6
		C6713.3-869.2,6710.2-866.1,6706.3-866.1z"/>
	<path class="st18" d="M6744.6-904.4L6744.6-904.4c0,3.8-3.1,7-7,7H6675c-3.8,0-7-3.1-7-7l0,0c0-3.8,3.1-7,7-7h62.6
		C6741.5-911.3,6744.6-908.2,6744.6-904.4z"/>
</g>
<g>
	<path class="st19" d="M6596-923.4c6.4,20.7-3.6,45.6-23.1,60.6c-19.5,14.9-48.7,19.8-66.1,7.5c-17.5-12.4-23.3-42.1-15.1-65.2
		c8.1-23.2,30.3-39.8,52.7-39.9S6589.7-944.1,6596-923.4z"/>
	<path class="st18" d="M6543-866.1L6543-866.1c-3.8,0-7-3.1-7-7v-62.6c0-3.8,3.1-7,7-7l0,0c3.8,0,7,3.1,7,7v62.6
		C6550-869.2,6546.8-866.1,6543-866.1z"/>
	<path class="st18" d="M6581.3-904.4L6581.3-904.4c0,3.8-3.1,7-7,7h-62.6c-3.8,0-7-3.1-7-7l0,0c0-3.8,3.1-7,7-7h62.6
		C6578.2-911.3,6581.3-908.2,6581.3-904.4z"/>
</g>
<path class="st20" d="M3346.2,1212.4h-36.1c-6.6,0-12-5.4-12-12v-36.1c0-6.6,5.4-12,12-12h36.1c6.6,0,12,5.4,12,12v36.1
	C3358.2,1207,3352.8,1212.4,3346.2,1212.4z"/>
<path class="st20" d="M3277.1,1212.4H3241c-6.6,0-12-5.4-12-12v-36.1c0-6.6,5.4-12,12-12h36.1c6.6,0,12,5.4,12,12v36.1
	C3289.1,1207,3283.7,1212.4,3277.1,1212.4z"/>
<path class="st20" d="M3208,1212.4h-36.1c-6.6,0-12-5.4-12-12v-36.1c0-6.6,5.4-12,12-12h36.1c6.6,0,12,5.4,12,12v36.1
	C3220,1207,3214.6,1212.4,3208,1212.4z"/>
<path class="st20" d="M3138.9,1212.4h-36.1c-6.6,0-12-5.4-12-12v-36.1c0-6.6,5.4-12,12-12h36.1c6.6,0,12,5.4,12,12v36.1
	C3150.9,1207,3145.5,1212.4,3138.9,1212.4z"/>
<path class="st20" d="M3069.8,1212.4h-36.1c-6.6,0-12-5.4-12-12v-36.1c0-6.6,5.4-12,12-12h36.1c6.6,0,12,5.4,12,12v36.1
	C3081.8,1207,3076.4,1212.4,3069.8,1212.4z"/>
<path class="st20" d="M3000.7,1212.4h-36.1c-6.6,0-12-5.4-12-12v-36.1c0-6.6,5.4-12,12-12h36.1c6.6,0,12,5.4,12,12v36.1
	C3012.7,1207,3007.3,1212.4,3000.7,1212.4z"/>
<path class="st20" d="M1854.2,2049h-36.1c-6.6,0-12-5.4-12-12v-36.1c0-6.6,5.4-12,12-12h36.1c6.6,0,12,5.4,12,12v36.1
	C1866.2,2043.6,1860.8,2049,1854.2,2049z"/>
<path class="st20" d="M1923.4,2049h-36.1c-6.6,0-12-5.4-12-12v-36.1c0-6.6,5.4-12,12-12h36.1c6.6,0,12,5.4,12,12v36.1
	C1935.4,2043.6,1930,2049,1923.4,2049z"/>
<path class="st20" d="M1992.6,2049h-36.1c-6.6,0-12-5.4-12-12v-36.1c0-6.6,5.4-12,12-12h36.1c6.6,0,12,5.4,12,12v36.1
	C2004.6,2043.6,1999.2,2049,1992.6,2049z"/>
<path class="st20" d="M2061.8,2049h-36.1c-6.6,0-12-5.4-12-12v-36.1c0-6.6,5.4-12,12-12h36.1c6.6,0,12,5.4,12,12v36.1
	C2073.8,2043.6,2068.4,2049,2061.8,2049z"/>
<path class="st20" d="M2131,2049h-36.1c-6.6,0-12-5.4-12-12v-36.1c0-6.6,5.4-12,12-12h36.1c6.6,0,12,5.4,12,12v36.1
	C2143,2043.6,2137.6,2049,2131,2049z"/>
<path class="st20" d="M2200.2,2049h-36.1c-6.6,0-12-5.4-12-12v-36.1c0-6.6,5.4-12,12-12h36.1c6.6,0,12,5.4,12,12v36.1
	C2212.2,2043.6,2206.8,2049,2200.2,2049z"/>
</svg>
