<?xml version="1.0" encoding="utf-8"?>
<!-- Generator: Adobe Illustrator 24.3.0, SVG Export Plug-In . SVG Version: 6.00 Build 0)  -->
<svg version="1.1" id="Layer_1" xmlns="http://www.w3.org/2000/svg" xmlns:xlink="http://www.w3.org/1999/xlink" x="0px" y="0px"
	 viewBox="0 0 1600 960" style="enable-background:new 0 0 1600 960;" xml:space="preserve">
<style type="text/css">
	.st0{fill:#212529;}
	.st1{opacity:0.1;fill:#4D194D;enable-background:new    ;}
	.st2{fill:#4D194D;}
	.st3{fill:#EFEEEE;}
	.st4{opacity:0.1;fill:#2B9348;enable-background:new    ;}
	.st5{fill:#2B9348;}
	.st6{opacity:0.1;fill:#D90429;enable-background:new    ;}
	.st7{fill:#D90429;}
	.st8{font-family:'PlayfairDisplay-SemiBoldItalic';}
	.st9{font-size:72px;}
	.st10{opacity:0.1;fill:#FFAFCC;enable-background:new    ;}
	.st11{fill:#FFAFCC;}
	.st12{enable-background:new    ;}
	.st13{opacity:0.1;fill:#FDC500;enable-background:new    ;}
	.st14{fill:#FDC500;}
	.st15{opacity:0.1;fill:#179BE5;enable-background:new    ;}
	.st16{fill:#179BE5;}
	.st17{fill:url(#SVGID_1_);}
	.st18{fill:#FFFFFF;}
	.st19{fill:#8A3FFC;}
</style>
<rect x="3886.2" class="st0" width="1600" height="960"/>
<path class="st1" d="M3886.2,813.1h53.3c53.3,0,160,0,266.7,16s213.3,48,320,64s213.3,16,320,0s213.3-48,320-69.3
	c106.7-21.7,213.3-31.7,266.7-37.4l53.3-5.3v160h-53.3c-53.3,0-160,0-266.7,0c-106.7,0-213.3,0-320,0c-106.7,0-213.3,0-320,0
	s-213.3,0-320,0s-213.3,0-266.7,0h-53.3V813.1z"/>
<path class="st2" d="M3886.2,832h53.3c53.3,0,160,0,266.7,16s213.3,48,320,64s213.3,16,320,0s213.3-48,320-69.3
	c106.7-21.7,213.3-31.7,266.7-37.4l53.3-5.3v160h-53.3c-53.3,0-160,0-266.7,0c-106.7,0-213.3,0-320,0c-106.7,0-213.3,0-320,0
	s-213.3,0-320,0s-213.3,0-266.7,0h-53.3V832z"/>
<path class="st2" d="M3886.2,118.3l133.3-14.8c133.3-14.8,400-44.4,666.7-29.6s533.3,73.9,666.7,103.5l133.3,29.6V0h-133.3
	c-133.3,0-400,0-666.7,0s-533.3,0-666.7,0h-133.3V118.3z"/>
<path class="st1" d="M3886.2,141.9l133.3-14.8c133.3-14.8,400-44.4,666.7-29.6s533.3,73.9,666.7,103.5l133.3,29.6v-207h-133.3
	c-133.3,0-400,0-666.7,0s-533.3,0-666.7,0h-133.3V141.9z"/>
<g>
	
		<image style="overflow:visible;" width="573" height="573" xlink:href="E0F276E9.png"  transform="matrix(1 0 0 1 4020.1411 193.1347)">
	</image>
</g>
<g>
	
		<image style="overflow:visible;" width="572" height="573" xlink:href="E0F276EA.png"  transform="matrix(1 0 0 1 4720.1411 193.1347)">
	</image>
</g>
<path class="st0" d="M4516.6,730h-419.7c-22.2,0-40.1-18-40.1-40.1V270.1c0-22.2,18-40.1,40.1-40.1h419.7c22.2,0,40.1,18,40.1,40.1
	v419.7C4556.7,712,4538.7,730,4516.6,730z"/>
<path class="st0" d="M5216.1,730h-419.8c-22.2,0-40.1-18-40.1-40.1V270.1c0-22.2,18-40.1,40.1-40.1H5216c22.2,0,40.1,18,40.1,40.1
	v419.7C5256.2,712,5238.2,730,5216.1,730z"/>
<text transform="matrix(1 0 0 1 4191.0493 314.8767)" class="st2 st8 st9">Word</text>
<text transform="matrix(1 0 0 1 4818.3096 314.8767)" class="st2 st8 st9">Meaning</text>
<rect x="3886.2" y="-1108.9" class="st3" width="1600" height="960"/>
<path class="st1" d="M3886.2-295.8h53.3c53.3,0,160,0,266.7,16s213.3,48,320,64s213.3,16,320,0s213.3-48,320-69.3
	c106.7-21.7,213.3-31.7,266.7-37.4l53.3-5.3v160h-53.3c-53.3,0-160,0-266.7,0c-106.7,0-213.3,0-320,0c-106.7,0-213.3,0-320,0
	s-213.3,0-320,0s-213.3,0-266.7,0h-53.3V-295.8z"/>
<path class="st2" d="M3886.2-276.9h53.3c53.3,0,160,0,266.7,16s213.3,48,320,64s213.3,16,320,0s213.3-48,320-69.3
	c106.7-21.7,213.3-31.7,266.7-37.4l53.3-5.3v160h-53.3c-53.3,0-160,0-266.7,0c-106.7,0-213.3,0-320,0c-106.7,0-213.3,0-320,0
	s-213.3,0-320,0s-213.3,0-266.7,0h-53.3V-276.9z"/>
<path class="st2" d="M3886.2-990.6l133.3-14.8c133.3-14.8,400-44.4,666.7-29.6c266.7,14.8,533.3,73.9,666.7,103.5l133.3,29.6v-207
	h-133.3c-133.3,0-400,0-666.7,0s-533.3,0-666.7,0h-133.3V-990.6z"/>
<path class="st1" d="M3886.2-967l133.3-14.8c133.3-14.8,400-44.4,666.7-29.6s533.3,73.9,666.7,103.5l133.3,29.6v-207h-133.3
	c-133.3,0-400,0-666.7,0s-533.3,0-666.7,0h-133.3V-967z"/>
<g>
	
		<image style="overflow:visible;" width="573" height="572" xlink:href="E0F276EB.png"  transform="matrix(1 0 0 1 4020.1411 -914.8653)">
	</image>
</g>
<g>
	
		<image style="overflow:visible;" width="572" height="572" xlink:href="E0F276EC.png"  transform="matrix(1 0 0 1 4720.1411 -914.8653)">
	</image>
</g>
<path class="st3" d="M4516.6-378.9h-419.7c-22.2,0-40.1-18-40.1-40.1v-419.8c0-22.2,18-40.1,40.1-40.1h419.7
	c22.2,0,40.1,18,40.1,40.1v419.7C4556.7-396.9,4538.7-378.9,4516.6-378.9z"/>
<path class="st3" d="M5216.1-378.9h-419.8c-22.2,0-40.1-18-40.1-40.1v-419.8c0-22.2,18-40.1,40.1-40.1H5216
	c22.2,0,40.1,18,40.1,40.1v419.7C5256.2-396.9,5238.2-378.9,5216.1-378.9z"/>
<text transform="matrix(1 0 0 1 4191.0493 -793.9886)" class="st2 st8 st9">Word</text>
<text transform="matrix(1 0 0 1 4818.3096 -793.9886)" class="st2 st8 st9">Meaning</text>
<rect x="1925.8" class="st0" width="1600" height="960"/>
<path class="st4" d="M1925.8,813.1h53.3c53.3,0,160,0,266.7,16c106.7,16,213.3,48,320,64c106.7,16,213.3,16,320,0s213.3-48,320-69.3
	c106.7-21.7,213.3-31.7,266.7-37.4l53.3-5.3v160h-53.3c-53.3,0-160,0-266.7,0s-213.3,0-320,0s-213.3,0-320,0c-106.7,0-213.3,0-320,0
	c-106.7,0-213.3,0-266.7,0h-53.3V813.1z"/>
<path class="st5" d="M1925.8,832h53.3c53.3,0,160,0,266.7,16c106.7,16,213.3,48,320,64c106.7,16,213.3,16,320,0s213.3-48,320-69.3
	c106.7-21.7,213.3-31.7,266.7-37.4l53.3-5.3v160h-53.3c-53.3,0-160,0-266.7,0s-213.3,0-320,0s-213.3,0-320,0c-106.7,0-213.3,0-320,0
	c-106.7,0-213.3,0-266.7,0h-53.3V832z"/>
<path class="st5" d="M1925.8,118.3l133.3-14.8c133.3-14.8,400-44.4,666.7-29.6s533.3,73.9,666.7,103.5l133.3,29.6V0h-133.3
	c-133.3,0-400,0-666.7,0s-533.3,0-666.7,0h-133.3V118.3z"/>
<path class="st4" d="M1925.8,141.9l133.3-14.8c133.3-14.8,400-44.4,666.7-29.6s533.3,73.9,666.7,103.5l133.3,29.6v-207h-133.3
	c-133.3,0-400,0-666.7,0s-533.3,0-666.7,0h-133.3V141.9z"/>
<g>
	
		<image style="overflow:visible;" width="573" height="573" xlink:href="E0F276ED.png"  transform="matrix(1 0 0 1 2060.1411 193.1347)">
	</image>
</g>
<g>
	
		<image style="overflow:visible;" width="573" height="573" xlink:href="E0F276E8.png"  transform="matrix(1 0 0 1 2759.1411 193.1347)">
	</image>
</g>
<path class="st0" d="M2556.2,730h-419.7c-22.2,0-40.1-18-40.1-40.1V270.1c0-22.2,18-40.1,40.1-40.1h419.7c22.2,0,40.1,18,40.1,40.1
	v419.7C2596.3,712,2578.3,730,2556.2,730z"/>
<path class="st0" d="M3255.7,730h-419.8c-22.2,0-40.1-18-40.1-40.1V270.1c0-22.2,18-40.1,40.1-40.1h419.7c22.2,0,40.1,18,40.1,40.1
	v419.7C3295.8,712,3277.8,730,3255.7,730z"/>
<text transform="matrix(1 0 0 1 2230.6631 314.8767)" class="st5 st8 st9">Word</text>
<text transform="matrix(1 0 0 1 2857.9233 314.8767)" class="st5 st8 st9">Meaning</text>
<rect x="1925.8" y="-1108.9" class="st3" width="1600" height="960"/>
<path class="st4" d="M1925.8-295.8h53.3c53.3,0,160,0,266.7,16c106.7,16,213.3,48,320,64c106.7,16,213.3,16,320,0s213.3-48,320-69.3
	c106.7-21.7,213.3-31.7,266.7-37.4l53.3-5.3v160h-53.3c-53.3,0-160,0-266.7,0s-213.3,0-320,0s-213.3,0-320,0c-106.7,0-213.3,0-320,0
	c-106.7,0-213.3,0-266.7,0h-53.3V-295.8z"/>
<path class="st5" d="M1925.8-276.9h53.3c53.3,0,160,0,266.7,16c106.7,16,213.3,48,320,64c106.7,16,213.3,16,320,0s213.3-48,320-69.3
	c106.7-21.7,213.3-31.7,266.7-37.4l53.3-5.3v160h-53.3c-53.3,0-160,0-266.7,0s-213.3,0-320,0s-213.3,0-320,0c-106.7,0-213.3,0-320,0
	c-106.7,0-213.3,0-266.7,0h-53.3V-276.9z"/>
<path class="st5" d="M1925.8-990.6l133.3-14.8c133.3-14.8,400-44.4,666.7-29.6c266.7,14.8,533.3,73.9,666.7,103.5l133.3,29.6v-207
	h-133.3c-133.3,0-400,0-666.7,0s-533.3,0-666.7,0h-133.3V-990.6z"/>
<path class="st4" d="M1925.8-967l133.3-14.8c133.3-14.8,400-44.4,666.7-29.6s533.3,73.9,666.7,103.5l133.3,29.6v-207h-133.3
	c-133.3,0-400,0-666.7,0s-533.3,0-666.7,0h-133.3V-967z"/>
<g>
	
		<image style="overflow:visible;" width="573" height="572" xlink:href="E0F276E7.png"  transform="matrix(1 0 0 1 2060.1411 -914.8653)">
	</image>
</g>
<g>
	
		<image style="overflow:visible;" width="573" height="572" xlink:href="E0F2770C.png"  transform="matrix(1 0 0 1 2759.1411 -914.8653)">
	</image>
</g>
<path class="st3" d="M2556.2-378.9h-419.7c-22.2,0-40.1-18-40.1-40.1v-419.8c0-22.2,18-40.1,40.1-40.1h419.7
	c22.2,0,40.1,18,40.1,40.1v419.7C2596.3-396.9,2578.3-378.9,2556.2-378.9z"/>
<path class="st3" d="M3255.7-378.9h-419.8c-22.2,0-40.1-18-40.1-40.1v-419.8c0-22.2,18-40.1,40.1-40.1h419.7
	c22.2,0,40.1,18,40.1,40.1v419.7C3295.8-396.9,3277.8-378.9,3255.7-378.9z"/>
<text transform="matrix(1 0 0 1 2230.6631 -793.9886)" class="st5 st8 st9">Word</text>
<text transform="matrix(1 0 0 1 2857.9233 -793.9886)" class="st5 st8 st9">Meaning</text>
<rect class="st0" width="1600" height="960"/>
<path class="st6" d="M0,813.1h53.3c53.3,0,160,0,266.7,16s213.3,48,320,64s213.3,16,320,0s213.3-48,320-69.3
	c106.7-21.7,213.3-31.7,266.7-37.4l53.3-5.3v160h-53.3c-53.3,0-160,0-266.7,0s-213.3,0-320,0s-213.3,0-320,0s-213.3,0-320,0
	s-213.3,0-266.7,0H0V813.1z"/>
<path class="st7" d="M0,832h53.3c53.3,0,160,0,266.7,16s213.3,48,320,64s213.3,16,320,0s213.3-48,320-69.3
	c106.7-21.7,213.3-31.7,266.7-37.4l53.3-5.3v160h-53.3c-53.3,0-160,0-266.7,0s-213.3,0-320,0s-213.3,0-320,0s-213.3,0-320,0
	s-213.3,0-266.7,0H0V832z"/>
<path class="st7" d="M0,118.3l133.3-14.8c133.3-14.8,400-44.4,666.7-29.6s533.3,73.9,666.7,103.5L1600,207V0h-133.3
	c-133.3,0-400,0-666.7,0S266.7,0,133.3,0H0V118.3z"/>
<path class="st6" d="M0,141.9l133.3-14.8c133.3-14.8,400-44.4,666.7-29.6s533.3,73.9,666.7,103.5l133.3,29.6v-207h-133.3
	c-133.3,0-400,0-666.7,0s-533.3,0-666.7,0H0V141.9z"/>
<g>
	
		<image style="overflow:visible;" width="573" height="573" xlink:href="E0F2770D.png"  transform="matrix(1 0 0 1 134.1412 193.1347)">
	</image>
</g>
<g>
	
		<image style="overflow:visible;" width="573" height="573" xlink:href="830B323C.png"  transform="matrix(1 0 0 1 833.1412 193.1347)">
	</image>
</g>
<path class="st0" d="M630.4,730H210.7c-22.2,0-40.1-18-40.1-40.1V270.1c0-22.2,18-40.1,40.1-40.1h419.7c22.2,0,40.1,18,40.1,40.1
	v419.7C670.5,712,652.5,730,630.4,730z"/>
<path class="st0" d="M1329.9,730H910.1c-22.2,0-40.1-18-40.1-40.1V270.1c0-22.2,18-40.1,40.1-40.1h419.7c22.2,0,40.1,18,40.1,40.1
	v419.7C1370,712,1352,730,1329.9,730z"/>
<text transform="matrix(1 0 0 1 304.8207 314.8767)" class="st7 st8 st9">Word</text>
<text transform="matrix(1 0 0 1 932.0811 314.8767)" class="st7 st8 st9">Meaning</text>
<rect y="-1108.9" class="st3" width="1600" height="960"/>
<path class="st6" d="M0-295.8h53.3c53.3,0,160,0,266.7,16s213.3,48,320,64s213.3,16,320,0s213.3-48,320-69.3
	c106.7-21.7,213.3-31.7,266.7-37.4l53.3-5.3v160h-53.3c-53.3,0-160,0-266.7,0s-213.3,0-320,0s-213.3,0-320,0s-213.3,0-320,0
	s-213.3,0-266.7,0H0V-295.8z"/>
<path class="st7" d="M0-276.9h53.3c53.3,0,160,0,266.7,16s213.3,48,320,64s213.3,16,320,0s213.3-48,320-69.3
	c106.7-21.7,213.3-31.7,266.7-37.4l53.3-5.3v160h-53.3c-53.3,0-160,0-266.7,0s-213.3,0-320,0s-213.3,0-320,0s-213.3,0-320,0
	s-213.3,0-266.7,0H0V-276.9z"/>
<path class="st7" d="M0-990.6l133.3-14.8c133.3-14.8,400-44.4,666.7-29.6c266.7,14.8,533.3,73.9,666.7,103.5l133.3,29.6v-207h-133.3
	c-133.3,0-400,0-666.7,0s-533.3,0-666.7,0H0V-990.6z"/>
<path class="st6" d="M0-967l133.3-14.8c133.3-14.8,400-44.4,666.7-29.6s533.3,73.9,666.7,103.5l133.3,29.6v-207h-133.3
	c-133.3,0-400,0-666.7,0s-533.3,0-666.7,0H0V-967z"/>
<g>
	
		<image style="overflow:visible;" width="573" height="572" xlink:href="830B323A.png"  transform="matrix(1 0 0 1 134.1412 -914.8653)">
	</image>
</g>
<g>
	
		<image style="overflow:visible;" width="573" height="572" xlink:href="830B323B.png"  transform="matrix(1 0 0 1 833.1412 -914.8653)">
	</image>
</g>
<path class="st3" d="M630.4-378.9H210.7c-22.2,0-40.1-18-40.1-40.1v-419.8c0-22.2,18-40.1,40.1-40.1h419.7c22.2,0,40.1,18,40.1,40.1
	v419.7C670.5-396.9,652.5-378.9,630.4-378.9z"/>
<path class="st3" d="M1329.9-378.9H910.1c-22.2,0-40.1-18-40.1-40.1v-419.8c0-22.2,18-40.1,40.1-40.1h419.7
	c22.2,0,40.1,18,40.1,40.1v419.7C1370-396.9,1352-378.9,1329.9-378.9z"/>
<text transform="matrix(1 0 0 1 304.8207 -793.9886)" class="st7 st8 st9">Word</text>
<text transform="matrix(1 0 0 1 932.0811 -793.9886)" class="st7 st8 st9">Meaning</text>
<rect x="-5418.3" class="st0" width="1600" height="960"/>
<path class="st10" d="M-5418.3,813.1h53.3c53.3,0,160,0,266.7,16s213.3,48,320,64s213.3,16,320,0c106.7-16,213.3-48,320-69.3
	c106.7-21.7,213.3-31.7,266.7-37.4l53.3-5.3v160h-53.3c-53.3,0-160,0-266.7,0c-106.7,0-213.3,0-320,0c-106.7,0-213.3,0-320,0
	s-213.3,0-320,0s-213.3,0-266.7,0h-53.3V813.1z"/>
<path class="st11" d="M-5418.3,832h53.3c53.3,0,160,0,266.7,16s213.3,48,320,64s213.3,16,320,0c106.7-16,213.3-48,320-69.3
	c106.7-21.7,213.3-31.7,266.7-37.4l53.3-5.3v160h-53.3c-53.3,0-160,0-266.7,0c-106.7,0-213.3,0-320,0c-106.7,0-213.3,0-320,0
	s-213.3,0-320,0s-213.3,0-266.7,0h-53.3V832z"/>
<path class="st11" d="M-5418.3,118.3l133.3-14.8c133.3-14.8,400-44.4,666.7-29.6c266.7,14.8,533.3,73.9,666.7,103.5l133.3,29.6V0
	h-133.3c-133.3,0-400,0-666.7,0C-4885,0-5151.6,0-5285,0h-133.3V118.3z"/>
<g class="st12">
	
		<image style="overflow:visible;" width="573" height="573" xlink:href="830B3224.png"  transform="matrix(1 0 0 1 -4584.8589 193.1347)">
	</image>
</g>
<path class="st10" d="M-5418.3,141.9l133.3-14.8c133.3-14.8,400-44.4,666.7-29.6c266.7,14.8,533.3,73.9,666.7,103.5l133.3,29.6v-207
	h-133.3c-133.3,0-400,0-666.7,0c-266.7,0-533.3,0-666.7,0h-133.3V141.9z"/>
<g class="st12">
	
		<image style="overflow:visible;" width="573" height="573" xlink:href="830B3229.png"  transform="matrix(1 0 0 1 -5283.8589 193.1347)">
	</image>
</g>
<path class="st0" d="M-4787.9,730h-419.7c-22.2,0-40.1-18-40.1-40.1V270.1c0-22.2,18-40.1,40.1-40.1h419.7c22.2,0,40.1,18,40.1,40.1
	v419.7C-4747.8,712-4765.8,730-4787.9,730z"/>
<path class="st0" d="M-4088.4,730h-419.8c-22.2,0-40.1-18-40.1-40.1V270.1c0-22.2,18-40.1,40.1-40.1h419.7c22.2,0,40.1,18,40.1,40.1
	v419.7C-4048.3,712-4066.3,730-4088.4,730z"/>
<text transform="matrix(1 0 0 1 -5113.5 314.8767)" class="st11 st8 st9">Word</text>
<text transform="matrix(1 0 0 1 -4486.2422 314.8767)" class="st11 st8 st9">Meaning</text>
<rect x="-5418.3" y="-1108.9" class="st3" width="1600" height="960"/>
<path class="st10" d="M-5418.3-295.8h53.3c53.3,0,160,0,266.7,16s213.3,48,320,64s213.3,16,320,0c106.7-16,213.3-48,320-69.3
	c106.7-21.7,213.3-31.7,266.7-37.4l53.3-5.3v160h-53.3c-53.3,0-160,0-266.7,0c-106.7,0-213.3,0-320,0c-106.7,0-213.3,0-320,0
	s-213.3,0-320,0s-213.3,0-266.7,0h-53.3V-295.8z"/>
<path class="st11" d="M-5418.3-276.9h53.3c53.3,0,160,0,266.7,16s213.3,48,320,64s213.3,16,320,0c106.7-16,213.3-48,320-69.3
	c106.7-21.7,213.3-31.7,266.7-37.4l53.3-5.3v160h-53.3c-53.3,0-160,0-266.7,0c-106.7,0-213.3,0-320,0c-106.7,0-213.3,0-320,0
	s-213.3,0-320,0s-213.3,0-266.7,0h-53.3V-276.9z"/>
<path class="st11" d="M-5418.3-990.6l133.3-14.8c133.3-14.8,400-44.4,666.7-29.6c266.7,14.8,533.3,73.9,666.7,103.5l133.3,29.6v-207
	h-133.3c-133.3,0-400,0-666.7,0c-266.7,0-533.3,0-666.7,0h-133.3V-990.6z"/>
<path class="st10" d="M-5418.3-967l133.3-14.8c133.3-14.8,400-44.4,666.7-29.6c266.7,14.8,533.3,73.9,666.7,103.5l133.3,29.6v-207
	h-133.3c-133.3,0-400,0-666.7,0c-266.7,0-533.3,0-666.7,0h-133.3V-967z"/>
<g class="st12">
	
		<image style="overflow:visible;enable-background:new    ;" width="573" height="572" xlink:href="E0F276F8.png"  transform="matrix(1 0 0 1 -5284.3223 -914.8653)">
	</image>
</g>
<path class="st3" d="M-4787.9-378.9h-419.7c-22.2,0-40.1-18-40.1-40.1v-419.8c0-22.2,18-40.1,40.1-40.1h419.7
	c22.2,0,40.1,18,40.1,40.1v419.7C-4747.8-396.9-4765.8-378.9-4787.9-378.9z"/>
<g>
	
		<image style="overflow:visible;enable-background:new    ;" width="572" height="572" xlink:href="E0F276F9.png"  transform="matrix(1 0 0 1 -4584.3223 -914.8653)">
	</image>
</g>
<path class="st3" d="M-4088.4-378.9h-419.8c-22.2,0-40.1-18-40.1-40.1v-419.8c0-22.2,18-40.1,40.1-40.1h419.7
	c22.2,0,40.1,18,40.1,40.1v419.7C-4048.3-396.9-4066.3-378.9-4088.4-378.9z"/>
<text transform="matrix(1 0 0 1 -5113.5 -793.9886)" class="st11 st8 st9">Word</text>
<text transform="matrix(1 0 0 1 -4486.2422 -793.9886)" class="st11 st8 st9">Meaning</text>
<rect x="-3637.5" class="st0" width="1600" height="960"/>
<path class="st13" d="M-3637.5,813.1h53.3c53.3,0,160,0,266.7,16s213.3,48,320,64s213.3,16,320,0s213.3-48,320-69.3
	c106.7-21.7,213.3-31.7,266.7-37.4l53.3-5.3v160h-53.3c-53.3,0-160,0-266.7,0s-213.3,0-320,0s-213.3,0-320,0s-213.3,0-320,0
	s-213.3,0-266.7,0h-53.3V813.1z"/>
<path class="st14" d="M-3637.5,832h53.3c53.3,0,160,0,266.7,16s213.3,48,320,64s213.3,16,320,0s213.3-48,320-69.3
	c106.7-21.7,213.3-31.7,266.7-37.4l53.3-5.3v160h-53.3c-53.3,0-160,0-266.7,0s-213.3,0-320,0s-213.3,0-320,0s-213.3,0-320,0
	s-213.3,0-266.7,0h-53.3V832z"/>
<path class="st14" d="M-3637.5,118.3l133.3-14.8c133.3-14.8,400-44.4,666.7-29.6s533.3,73.9,666.7,103.5l133.3,29.6V0h-133.3
	c-133.3,0-400,0-666.7,0s-533.3,0-666.7,0h-133.3V118.3z"/>
<g class="st12">
	
		<image style="overflow:visible;" width="573" height="573" xlink:href="830B322E.png"  transform="matrix(1 0 0 1 -2803.8589 193.1347)">
	</image>
</g>
<path class="st13" d="M-3637.5,141.9l133.3-14.8c133.3-14.8,400-44.4,666.7-29.6s533.3,73.9,666.7,103.5l133.3,29.6v-207h-133.3
	c-133.3,0-400,0-666.7,0s-533.3,0-666.7,0h-133.3V141.9z"/>
<g class="st12">
	
		<image style="overflow:visible;" width="572" height="573" xlink:href="830B322F.png"  transform="matrix(1 0 0 1 -3502.8589 193.1347)">
	</image>
</g>
<path class="st0" d="M-3007.1,730h-419.7c-22.2,0-40.1-18-40.1-40.1V270.1c0-22.2,18-40.1,40.1-40.1h419.7c22.2,0,40.1,18,40.1,40.1
	v419.7C-2967,712-2985,730-3007.1,730z"/>
<path class="st0" d="M-2307.6,730h-419.8c-22.2,0-40.1-18-40.1-40.1V270.1c0-22.2,18-40.1,40.1-40.1h419.7c22.2,0,40.1,18,40.1,40.1
	v419.7C-2267.5,712-2285.5,730-2307.6,730z"/>
<text transform="matrix(1 0 0 1 -3332.6279 314.8767)" class="st14 st8 st9">Word</text>
<text transform="matrix(1 0 0 1 -2705.3699 314.8767)" class="st14 st8 st9">Meaning</text>
<rect x="-3637.5" y="-1108.9" class="st3" width="1600" height="960"/>
<path class="st13" d="M-3637.5-295.8h53.3c53.3,0,160,0,266.7,16s213.3,48,320,64s213.3,16,320,0s213.3-48,320-69.3
	c106.7-21.7,213.3-31.7,266.7-37.4l53.3-5.3v160h-53.3c-53.3,0-160,0-266.7,0s-213.3,0-320,0s-213.3,0-320,0s-213.3,0-320,0
	s-213.3,0-266.7,0h-53.3V-295.8z"/>
<path class="st14" d="M-3637.5-276.9h53.3c53.3,0,160,0,266.7,16s213.3,48,320,64s213.3,16,320,0s213.3-48,320-69.3
	c106.7-21.7,213.3-31.7,266.7-37.4l53.3-5.3v160h-53.3c-53.3,0-160,0-266.7,0s-213.3,0-320,0s-213.3,0-320,0s-213.3,0-320,0
	s-213.3,0-266.7,0h-53.3V-276.9z"/>
<path class="st14" d="M-3637.5-990.6l133.3-14.8c133.3-14.8,400-44.4,666.7-29.6c266.7,14.8,533.3,73.9,666.7,103.5l133.3,29.6v-207
	h-133.3c-133.3,0-400,0-666.7,0s-533.3,0-666.7,0h-133.3V-990.6z"/>
<path class="st13" d="M-3637.5-967l133.3-14.8c133.3-14.8,400-44.4,666.7-29.6s533.3,73.9,666.7,103.5l133.3,29.6v-207h-133.3
	c-133.3,0-400,0-666.7,0s-533.3,0-666.7,0h-133.3V-967z"/>
<g class="st12">
	
		<image style="overflow:visible;enable-background:new    ;" width="573" height="572" xlink:href="E0F276F8.png"  transform="matrix(1 0 0 1 -3503.4502 -914.8653)">
	</image>
</g>
<path class="st3" d="M-3007.1-378.9h-419.7c-22.2,0-40.1-18-40.1-40.1v-419.8c0-22.2,18-40.1,40.1-40.1h419.7
	c22.2,0,40.1,18,40.1,40.1v419.7C-2967-396.9-2985-378.9-3007.1-378.9z"/>
<g>
	
		<image style="overflow:visible;enable-background:new    ;" width="572" height="572" xlink:href="E0F276F9.png"  transform="matrix(1 0 0 1 -2803.4502 -914.8653)">
	</image>
</g>
<path class="st3" d="M-2307.6-378.9h-419.8c-22.2,0-40.1-18-40.1-40.1v-419.8c0-22.2,18-40.1,40.1-40.1h419.7
	c22.2,0,40.1,18,40.1,40.1v419.7C-2267.5-396.9-2285.5-378.9-2307.6-378.9z"/>
<text transform="matrix(1 0 0 1 -3332.6279 -793.9886)" class="st14 st8 st9">Word</text>
<text transform="matrix(1 0 0 1 -2705.3699 -793.9886)" class="st14 st8 st9">Meaning</text>
<rect x="-1816.9" class="st0" width="1600" height="960"/>
<path class="st15" d="M-1816.9,813.1h53.3c53.3,0,160,0,266.7,16c106.7,16,213.3,48,320,64c106.7,16,213.3,16,320,0
	s213.3-48,320-69.3c106.7-21.7,213.3-31.7,266.7-37.4l53.3-5.3v160h-53.3c-53.3,0-160,0-266.7,0s-213.3,0-320,0s-213.3,0-320,0
	c-106.7,0-213.3,0-320,0c-106.7,0-213.3,0-266.7,0h-53.3V813.1z"/>
<path class="st16" d="M-1816.9,832h53.3c53.3,0,160,0,266.7,16c106.7,16,213.3,48,320,64c106.7,16,213.3,16,320,0s213.3-48,320-69.3
	c106.7-21.7,213.3-31.7,266.7-37.4l53.3-5.3v160h-53.3c-53.3,0-160,0-266.7,0s-213.3,0-320,0s-213.3,0-320,0c-106.7,0-213.3,0-320,0
	c-106.7,0-213.3,0-266.7,0h-53.3V832z"/>
<path class="st16" d="M-1816.9,118.3l133.3-14.8c133.3-14.8,400-44.4,666.7-29.6s533.3,73.9,666.7,103.5l133.3,29.6V0h-133.3
	c-133.3,0-400,0-666.7,0s-533.3,0-666.7,0h-133.3V118.3z"/>
<path class="st15" d="M-1816.9,141.9l133.3-14.8c133.3-14.8,400-44.4,666.7-29.6s533.3,73.9,666.7,103.5l133.3,29.6v-207h-133.3
	c-133.3,0-400,0-666.7,0s-533.3,0-666.7,0h-133.3V141.9z"/>
<g class="st12">
	
		<image style="overflow:visible;enable-background:new    ;" width="573" height="572" xlink:href="E0F276F8.png"  transform="matrix(1 0 0 1 -1682.8589 194)">
	</image>
</g>
<path class="st0" d="M-1186.5,730h-419.7c-22.2,0-40.1-18-40.1-40.1V270.1c0-22.2,18-40.1,40.1-40.1h419.7c22.2,0,40.1,18,40.1,40.1
	v419.7C-1146.4,712-1164.4,730-1186.5,730z"/>
<g>
	
		<image style="overflow:visible;enable-background:new    ;" width="572" height="572" xlink:href="E0F276F9.png"  transform="matrix(1 0 0 1 -982.8588 194)">
	</image>
</g>
<path class="st0" d="M-487,730h-419.8c-22.2,0-40.1-18-40.1-40.1V270.1c0-22.2,18-40.1,40.1-40.1h419.7c22.2,0,40.1,18,40.1,40.1
	v419.7C-446.9,712-464.9,730-487,730z"/>
<text transform="matrix(1 0 0 1 -1512.0365 314.8767)" class="st16 st8 st9">Word</text>
<text transform="matrix(1 0 0 1 -884.7784 314.8767)" class="st16 st8 st9">Meaning</text>
<rect x="-1816.9" y="-1108.9" class="st3" width="1600" height="960"/>
<path class="st15" d="M-1816.9-295.8h53.3c53.3,0,160,0,266.7,16c106.7,16,213.3,48,320,64c106.7,16,213.3,16,320,0
	s213.3-48,320-69.3c106.7-21.7,213.3-31.7,266.7-37.4l53.3-5.3v160h-53.3c-53.3,0-160,0-266.7,0s-213.3,0-320,0s-213.3,0-320,0
	c-106.7,0-213.3,0-320,0c-106.7,0-213.3,0-266.7,0h-53.3V-295.8z"/>
<path class="st16" d="M-1816.9-276.9h53.3c53.3,0,160,0,266.7,16c106.7,16,213.3,48,320,64c106.7,16,213.3,16,320,0
	s213.3-48,320-69.3c106.7-21.7,213.3-31.7,266.7-37.4l53.3-5.3v160h-53.3c-53.3,0-160,0-266.7,0s-213.3,0-320,0s-213.3,0-320,0
	c-106.7,0-213.3,0-320,0c-106.7,0-213.3,0-266.7,0h-53.3V-276.9z"/>
<path class="st16" d="M-1816.9-990.6l133.3-14.8c133.3-14.8,400-44.4,666.7-29.6c266.7,14.8,533.3,73.9,666.7,103.5l133.3,29.6v-207
	h-133.3c-133.3,0-400,0-666.7,0s-533.3,0-666.7,0h-133.3V-990.6z"/>
<path class="st15" d="M-1816.9-967l133.3-14.8c133.3-14.8,400-44.4,666.7-29.6s533.3,73.9,666.7,103.5l133.3,29.6v-207h-133.3
	c-133.3,0-400,0-666.7,0s-533.3,0-666.7,0h-133.3V-967z"/>
<g class="st12">
	
		<image style="overflow:visible;enable-background:new    ;" width="573" height="572" xlink:href="E0F276F8.png"  transform="matrix(1 0 0 1 -1682.8589 -914.8653)">
	</image>
</g>
<path class="st3" d="M-1186.5-378.9h-419.7c-22.2,0-40.1-18-40.1-40.1v-419.8c0-22.2,18-40.1,40.1-40.1h419.7
	c22.2,0,40.1,18,40.1,40.1v419.7C-1146.4-396.9-1164.4-378.9-1186.5-378.9z"/>
<g>
	
		<image style="overflow:visible;enable-background:new    ;" width="572" height="572" xlink:href="E0F276F9.png"  transform="matrix(1 0 0 1 -982.8588 -914.8653)">
	</image>
</g>
<path class="st3" d="M-487-378.9h-419.8c-22.2,0-40.1-18-40.1-40.1v-419.8c0-22.2,18-40.1,40.1-40.1h419.7c22.2,0,40.1,18,40.1,40.1
	v419.7C-446.9-396.9-464.9-378.9-487-378.9z"/>
<text transform="matrix(1 0 0 1 -1512.0365 -793.9886)" class="st16 st8 st9">Word</text>
<text transform="matrix(1 0 0 1 -884.7784 -793.9886)" class="st16 st8 st9">Meaning</text>
<g>
	<g>
		
			<image style="overflow:visible;" width="191" height="193" xlink:href="830B324E.png"  transform="matrix(1 0 0 1 1357.1411 -2109.8652)">
		</image>
	</g>
	<radialGradient id="SVGID_1_" cx="1452.4751" cy="-2013.2869" r="55.4765" gradientUnits="userSpaceOnUse">
		<stop  offset="0" style="stop-color:#5700DB"/>
		<stop  offset="0.2615" style="stop-color:#5A04DD"/>
		<stop  offset="0.5074" style="stop-color:#630FE3"/>
		<stop  offset="0.7472" style="stop-color:#7322ED"/>
		<stop  offset="0.982" style="stop-color:#883DFB"/>
		<stop  offset="1" style="stop-color:#8A3FFC"/>
	</radialGradient>
	<path class="st17" d="M1505.5-2032.3c6.4,20.7-3.6,45.6-23.1,60.6c-19.5,14.9-48.7,19.8-66.1,7.5c-17.5-12.4-23.3-42.1-15.1-65.2
		c8.1-23.2,30.3-39.8,52.7-39.9S1499.1-2053,1505.5-2032.3z"/>
	<path class="st18" d="M1452.5-1975L1452.5-1975c-3.8,0-7-3.1-7-7v-62.6c0-3.8,3.1-7,7-7h0c3.8,0,7,3.1,7,7v62.6
		C1459.4-1978.1,1456.3-1975,1452.5-1975z"/>
	<path class="st18" d="M1490.8-2013.3L1490.8-2013.3c0,3.8-3.1,7-7,7h-62.6c-3.8,0-7-3.1-7-7l0,0c0-3.8,3.1-7,7-7h62.6
		C1487.6-2020.2,1490.8-2017.1,1490.8-2013.3z"/>
</g>
<g>
	<g>
		
			<image style="overflow:visible;" width="192" height="193" xlink:href="830B3242.png"  transform="matrix(1 0 0 1 1192.1411 -2109.8652)">
		</image>
	</g>
	<path class="st19" d="M1341.1-2032.3c6.4,20.7-3.6,45.6-23.1,60.6c-19.5,14.9-48.7,19.8-66.1,7.5c-17.5-12.4-23.3-42.1-15.1-65.2
		c8.1-23.2,30.3-39.8,52.7-39.9C1311.9-2069.4,1334.7-2053,1341.1-2032.3z"/>
	<path class="st18" d="M1288-1975L1288-1975c-3.8,0-7-3.1-7-7v-62.6c0-3.8,3.1-7,7-7l0,0c3.8,0,7,3.1,7,7v62.6
		C1295-1978.1,1291.9-1975,1288-1975z"/>
	<path class="st18" d="M1326.3-2013.3L1326.3-2013.3c0,3.8-3.1,7-7,7h-62.6c-3.8,0-7-3.1-7-7l0,0c0-3.8,3.1-7,7-7h62.6
		C1323.2-2020.2,1326.3-2017.1,1326.3-2013.3z"/>
</g>
<g>
	<path class="st19" d="M1177.7-2032.3c6.4,20.7-3.6,45.6-23.1,60.6c-19.5,14.9-48.7,19.8-66.1,7.5c-17.5-12.4-23.3-42.1-15.1-65.2
		c8.1-23.2,30.3-39.8,52.7-39.9S1171.4-2053,1177.7-2032.3z"/>
	<path class="st18" d="M1124.7-1975L1124.7-1975c-3.8,0-7-3.1-7-7v-62.6c0-3.8,3.1-7,7-7l0,0c3.8,0,7,3.1,7,7v62.6
		C1131.7-1978.1,1128.5-1975,1124.7-1975z"/>
	<path class="st18" d="M1163-2013.3L1163-2013.3c0,3.8-3.1,7-7,7h-62.6c-3.8,0-7-3.1-7-7l0,0c0-3.8,3.1-7,7-7h62.6
		C1159.9-2020.2,1163-2017.1,1163-2013.3z"/>
</g>
</svg>
