<?xml version="1.0" encoding="utf-8"?>
<!-- Generator: Adobe Illustrator 24.3.0, SVG Export Plug-In . SVG Version: 6.00 Build 0)  -->
<svg version="1.1" id="Layer_1" xmlns="http://www.w3.org/2000/svg" xmlns:xlink="http://www.w3.org/1999/xlink" x="0px" y="0px"
	 viewBox="0 0 1600 960" style="enable-background:new 0 0 1600 960;" xml:space="preserve">
<style type="text/css">
	.st0{fill:#EFEEEE;}
	.st1{opacity:0.1;fill:#179BE5;enable-background:new    ;}
	.st2{fill:#179BE5;}
	.st3{enable-background:new    ;}
	.st4{font-family:'PlayfairDisplay-SemiBoldItalic';}
	.st5{font-size:72px;}
	.st6{fill:#E21A1A;}
	.st7{fill:#2EBF10;}
	.st8{fill:#00BF09;}
</style>
<rect class="st0" width="1600" height="960"/>
<path class="st1" d="M0,813.1h53.3c53.3,0,160,0,266.7,16s213.3,48,320,64s213.3,16,320,0s213.3-48,320-69.3
	c106.7-21.7,213.3-31.7,266.7-37.4l53.3-5.3v160h-53.3c-53.3,0-160,0-266.7,0s-213.3,0-320,0s-213.3,0-320,0s-213.3,0-320,0
	s-213.3,0-266.7,0H0V813.1z"/>
<path class="st2" d="M0,832h53.3c53.3,0,160,0,266.7,16s213.3,48,320,64s213.3,16,320,0s213.3-48,320-69.3
	c106.7-21.7,213.3-31.7,266.7-37.4l53.3-5.3v160h-53.3c-53.3,0-160,0-266.7,0s-213.3,0-320,0s-213.3,0-320,0s-213.3,0-320,0
	s-213.3,0-266.7,0H0V832z"/>
<path class="st2" d="M0,118.3l133.3-14.8c133.3-14.8,400-44.4,666.7-29.6s533.3,73.9,666.7,103.5L1600,207V0h-133.3
	c-133.3,0-400,0-666.7,0S266.7,0,133.3,0H0V118.3z"/>
<path class="st1" d="M0,141.9l133.3-14.8c133.3-14.8,400-44.4,666.7-29.6s533.3,73.9,666.7,103.5l133.3,29.6v-207h-133.3
	c-133.3,0-400,0-666.7,0s-533.3,0-666.7,0H0V141.9z"/>
<g class="st3">
	
		<image style="overflow:visible;enable-background:new    ;" width="573" height="572" xlink:href="E0F276F8.png"  transform="matrix(1 0 0 1 134 194)">
	</image>
</g>
<path class="st0" d="M630.4,730H210.7c-22.2,0-40.1-18-40.1-40.1V270.1c0-22.2,18-40.1,40.1-40.1h419.7c22.2,0,40.1,18,40.1,40.1
	v419.7C670.5,712,652.5,730,630.4,730z"/>
<g>
	
		<image style="overflow:visible;enable-background:new    ;" width="572" height="572" xlink:href="E0F276F9.png"  transform="matrix(1 0 0 1 834 194)">
	</image>
</g>
<path class="st0" d="M1329.9,730H910.1c-22.2,0-40.1-18-40.1-40.1V270.1c0-22.2,18-40.1,40.1-40.1h419.7c22.2,0,40.1,18,40.1,40.1
	v419.7C1370,712,1352,730,1329.9,730z"/>
<text transform="matrix(1 0 0 1 304.8218 314.8765)" class="st2 st4 st5">Word</text>
<text transform="matrix(1 0 0 1 932.0806 314.8765)" class="st2 st4 st5">Meaning</text>
<path class="st0" d="M834,401.6H707v-93.9c0-18.3,14.8-33.1,33.1-33.1h60.8c18.3,0,33.1,14.8,33.1,33.1V401.6z"/>
<path class="st0" d="M800.9,592.1h-60.8c-18.3,0-33.1-14.8-33.1-33.1v-93.9h127V559C834,577.3,819.2,592.1,800.9,592.1z"/>
<g>
	<image style="overflow:visible;" width="200" height="200" xlink:href="E0F276FF.png"  transform="matrix(1 0 0 1 669 174)">
	</image>
</g>
<g>
	<image style="overflow:visible;" width="200" height="200" xlink:href="E0F276FA.png"  transform="matrix(1 0 0 1 669 302)">
	</image>
</g>
<g>
	<path class="st0" d="M738.9,464.6c-17.7,0-32.1-14.4-32.1-32.1v-92.9h125v92.9c0,17.7-14.4,32.1-32.1,32.1H738.9z"/>
	<path class="st6" d="M830.8,340.6v91.9c0,17.1-13.9,31.1-31.1,31.1h-60.8c-17.1,0-31.1-13.9-31.1-31.1v-91.9H830.8 M832.8,338.6
		h-127v93.9c0,18.3,14.8,33.1,33.1,33.1h60.8c18.3,0,33.1-14.8,33.1-33.1V338.6L832.8,338.6z"/>
</g>
<g>
	<path class="st0" d="M706.8,336.6v-92.9c0-17.7,14.4-32.1,32.1-32.1h60.8c17.7,0,32.1,14.4,32.1,32.1v92.9H706.8z"/>
	<path class="st7" d="M799.7,212.6c17.1,0,31.1,13.9,31.1,31.1v91.9h-123v-91.9c0-17.1,13.9-31.1,31.1-31.1H799.7 M799.7,210.6
		h-60.8c-18.3,0-33.1,14.8-33.1,33.1v93.9h127v-93.9C832.8,225.4,818,210.6,799.7,210.6L799.7,210.6z"/>
</g>
<g>
	<path class="st8" d="M765.7,308.6L765.7,308.6c-3.4,3.4-8.8,3.4-12.2,0l-22.2-22.2c-3.4-3.4-3.4-8.8,0-12.2l0,0
		c3.4-3.4,8.8-3.4,12.2,0l22.2,22.2C769.1,299.7,769.1,305.2,765.7,308.6z"/>
	<path class="st8" d="M812.4,251.6L812.4,251.6c3.4,3.4,3.4,8.8,0,12.2L767,309.3c-3.4,3.4-8.8,3.4-12.2,0l0,0
		c-3.4-3.4-3.4-8.8,0-12.2l45.5-45.5C803.6,248.3,809.1,248.3,812.4,251.6z"/>
</g>
<path class="st6" d="M798.1,372.8L798.1,372.8c3.4,3.4,3.4,8.8,0,12.2l-45.5,45.5c-3.4,3.4-8.8,3.4-12.2,0l0,0
	c-3.4-3.4-3.4-8.8,0-12.2l45.5-45.5C789.3,369.5,794.8,369.5,798.1,372.8z"/>
<path class="st6" d="M740.5,372.8L740.5,372.8c3.4-3.4,8.8-3.4,12.2,0l45.5,45.5c3.4,3.4,3.4,8.8,0,12.2l0,0
	c-3.4,3.4-8.8,3.4-12.2,0L740.5,385C737.1,381.6,737.1,376.2,740.5,372.8z"/>
</svg>
